<?xml version="1.0" encoding="UTF-8"?>
<svg xmlns="http://www.w3.org/2000/svg" xmlns:xlink="http://www.w3.org/1999/xlink" width="px" height="px" viewBox="0 0 625 188" version="1.1">
<g id="surface1">
<path style=" stroke:none;fill-rule:nonzero;fill:rgb(0%,0%,0%);fill-opacity:1;" d="M 140.3125 46.117188 L 140.3125 104.292969 C 140.3125 106.257812 138.71875 107.851562 136.753906 107.851562 L 118.390625 107.851562 C 116.425781 107.847656 114.835938 106.257812 114.835938 104.292969 L 114.835938 9.667969 C 114.835938 7.703125 116.425781 6.113281 118.390625 6.113281 L 135.386719 6.113281 C 137.347656 6.113281 138.941406 7.703125 138.941406 9.667969 L 138.941406 22.996094 C 138.941406 22.996094 145.015625 3.984375 163.042969 3.984375 C 163.042969 3.984375 180.878906 1.828125 188.128906 21.621094 C 188.128906 21.621094 194.203125 3.984375 212.625 3.984375 C 212.625 3.984375 240.019531 2.355469 240.019531 30.703125 L 240.226562 46.316406 L 240.226562 104.492188 C 240.226562 106.453125 238.636719 108.046875 236.671875 108.046875 L 218.304688 108.046875 C 216.34375 108.046875 214.75 106.453125 214.75 104.492188 L 214.582031 41.023438 C 215.105469 26.652344 203.480469 27.699219 203.480469 27.699219 C 188.847656 27.960938 190.253906 46.316406 190.253906 46.316406 L 190.253906 104.492188 C 190.253906 106.453125 188.664062 108.046875 186.699219 108.046875 L 168.335938 108.046875 C 166.371094 108.046875 164.78125 106.453125 164.777344 104.492188 L 164.777344 42.460938 C 164.777344 42.460938 165.851562 27.566406 152.785156 27.566406 C 152.789062 27.566406 139.855469 25.867188 140.3125 46.117188 Z M 613.699219 45.945312 L 613.699219 104.117188 C 613.699219 106.082031 612.109375 107.675781 610.144531 107.675781 L 591.046875 108.042969 C 589.082031 108.042969 587.492188 106.453125 587.488281 104.488281 L 587.488281 42.460938 C 587.488281 42.460938 588.5625 27.566406 575.5 27.566406 C 575.5 27.566406 563.023438 26.953125 563.023438 50.304688 L 563.023438 104.292969 C 563.019531 106.257812 561.429688 107.847656 559.464844 107.847656 L 541.101562 107.847656 C 539.136719 107.847656 537.546875 106.257812 537.542969 104.292969 L 537.542969 9.667969 C 537.546875 7.703125 539.136719 6.113281 541.101562 6.113281 L 558.09375 6.113281 C 560.058594 6.113281 561.648438 7.703125 561.648438 9.667969 L 561.648438 22.996094 C 561.648438 22.996094 567.726562 3.984375 585.753906 3.984375 C 585.753906 3.984375 605.066406 1.054688 611.570312 21.253906 C 611.574219 21.253906 613.699219 25.417969 613.699219 45.945312 Z M 481.101562 3.59375 C 457.617188 3.59375 438.574219 23.386719 438.574219 56.699219 C 438.574219 86.03125 453.273438 109.808594 481.101562 109.808594 C 507.359375 109.808594 523.625 86.03125 523.625 56.699219 C 523.625 23.972656 504.585938 3.59375 481.101562 3.59375 Z M 495.921875 57.875 C 495.921875 70.417969 494.355469 77.082031 494.355469 77.082031 C 492.125 90.339844 482.5 90.359375 481.082031 90.289062 C 479.550781 90.347656 469.84375 90.210938 467.835938 77.082031 C 467.835938 77.082031 466.269531 70.417969 466.269531 57.875 L 466.269531 55.785156 C 466.269531 43.246094 467.835938 36.582031 467.835938 36.582031 C 469.84375 23.453125 479.550781 23.3125 481.082031 23.375 C 482.5 23.304688 492.125 23.320312 494.355469 36.582031 C 494.355469 36.582031 495.921875 43.246094 495.921875 55.785156 Z M 427.917969 22.863281 L 427.917969 9.285156 C 427.914062 7.324219 426.324219 5.730469 424.359375 5.730469 L 363.65625 5.730469 C 361.695312 5.730469 360.101562 7.320312 360.101562 9.285156 L 360.101562 22.757812 C 360.101562 24.722656 361.695312 26.3125 363.65625 26.3125 L 395.320312 26.3125 L 357.84375 80.683594 C 357.84375 80.683594 356.367188 82.886719 356.414062 85.320312 L 356.414062 101.859375 C 356.414062 101.859375 356.167969 107.53125 362.601562 104.238281 C 362.601562 104.238281 374.023438 97.339844 393.175781 97.339844 C 393.175781 97.339844 412.089844 97.101562 424.703125 104.832031 C 424.703125 104.832031 429.9375 107.214844 429.9375 101.980469 L 429.9375 87.585938 C 429.9375 87.585938 430.414062 83.777344 425.414062 81.398438 C 425.414062 81.398438 410.902344 73.425781 391.867188 74.734375 Z M 100.660156 90.929688 L 94.910156 82.175781 C 93.082031 78.910156 93.214844 75.25 93.214844 75.25 L 93.214844 34.882812 C 93.996094 0 55.324219 3.003906 55.324219 3.003906 C 20.949219 3.003906 15.871094 29.757812 15.871094 29.757812 C 14.4375 35.136719 18.605469 35.269531 18.605469 35.269531 L 35.402344 36.972656 C 35.402344 36.972656 38.265625 37.628906 39.308594 34.21875 C 39.308594 34.21875 41.523438 22.546875 53.894531 22.546875 C 67.355469 22.546875 67.214844 34.097656 67.214844 34.097656 L 67.214844 43.769531 C 40.34375 44.667969 27.890625 52.128906 27.890625 52.128906 C 11.300781 61.535156 12.34375 80.21875 12.34375 80.21875 C 12.34375 110.65625 41.347656 109.347656 41.347656 109.347656 C 59.898438 109.347656 70.871094 95.761719 70.871094 95.761719 C 74.136719 101.511719 80.148438 106.996094 80.148438 106.996094 C 83.15625 110.257812 86.289062 107.519531 86.289062 107.519531 L 99.875 95.894531 C 102.878906 93.671875 100.660156 90.929688 100.660156 90.929688 Z M 50.398438 90.550781 C 41.675781 90.550781 38.429688 81.878906 39.878906 73.359375 C 41.328125 64.835938 48.859375 58.136719 67.214844 58.335938 L 67.214844 63.515625 C 67.867188 86.152344 57.664062 90.550781 50.398438 90.550781 Z M 344.707031 90.929688 L 338.957031 82.175781 C 337.128906 78.910156 337.257812 75.25 337.257812 75.25 L 337.257812 34.882812 C 338.042969 0 299.371094 3.003906 299.371094 3.003906 C 264.992188 3.003906 259.917969 29.757812 259.917969 29.757812 C 258.484375 35.136719 262.648438 35.269531 262.648438 35.269531 L 279.449219 36.972656 C 279.449219 36.972656 282.3125 37.628906 283.355469 34.21875 C 283.355469 34.21875 285.566406 22.546875 297.9375 22.546875 C 311.398438 22.546875 311.261719 34.097656 311.261719 34.097656 L 311.261719 43.769531 C 284.390625 44.667969 271.9375 52.128906 271.9375 52.128906 C 255.34375 61.535156 256.386719 80.21875 256.386719 80.21875 C 256.386719 110.65625 285.390625 109.347656 285.390625 109.347656 C 303.941406 109.347656 314.917969 95.761719 314.917969 95.761719 C 318.183594 101.511719 324.191406 106.996094 324.191406 106.996094 C 327.199219 110.257812 330.335938 107.519531 330.335938 107.519531 L 343.921875 95.894531 C 346.925781 93.671875 344.707031 90.929688 344.707031 90.929688 Z M 294.445312 90.550781 C 285.71875 90.550781 282.476562 81.878906 283.925781 73.359375 C 285.375 64.835938 292.90625 58.136719 311.261719 58.335938 L 311.261719 63.515625 C 311.910156 86.152344 301.710938 90.550781 294.445312 90.550781 Z M 294.445312 90.550781 "/>
<path style=" stroke:none;fill-rule:nonzero;fill:rgb(95.294118%,59.215689%,10.588235%);fill-opacity:1;" d="M 390.949219 167.335938 C 390.949219 167.335938 389.414062 170.011719 391.300781 170.605469 C 391.300781 170.605469 393.433594 171.441406 396.089844 168.972656 C 396.089844 168.972656 415.484375 152.03125 415.949219 121.191406 C 415.949219 121.191406 416.09375 117.339844 414.546875 116.285156 C 414.546875 116.285156 408.472656 110.914062 386.625 112.546875 C 386.625 112.546875 367.585938 113.832031 357.1875 123.0625 C 357.1875 123.0625 356.253906 123.878906 356.253906 124.929688 C 356.253906 124.929688 356.03125 127.199219 361.746094 126.214844 C 361.746094 126.214844 380.785156 123.527344 392.117188 124.929688 C 392.117188 124.929688 397.960938 125.628906 399.59375 127.617188 C 399.59375 127.617188 402.28125 129.839844 400.878906 137.195312 C 400.878906 137.199219 397.023438 155.890625 390.949219 167.335938 Z M 390.949219 167.335938 "/>
<path style=" stroke:none;fill-rule:nonzero;fill:rgb(95.294118%,59.215689%,10.588235%);fill-opacity:1;" d="M 387.109375 137.75 C 387.109375 137.75 389.953125 141.433594 385.363281 144.609375 C 385.363281 144.609375 336.34375 183.820312 254.039062 183.820312 C 254.039062 183.820312 169.3125 188 98.570312 123.722656 C 98.570312 123.722656 96.089844 121.542969 97.628906 119.519531 C 97.628906 119.519531 99.003906 117.65625 102.570312 119.683594 C 102.570312 119.683594 169.117188 161.152344 256.519531 161.152344 C 256.519531 161.152344 317.269531 163.503906 379.589844 136.851562 C 379.589844 136.851562 384.554688 134.28125 387.109375 137.75 Z M 387.109375 137.75 "/>
</g>
</svg>
