<?xml version="1.0" encoding="UTF-8"?>
<svg xmlns="http://www.w3.org/2000/svg" xmlns:xlink="http://www.w3.org/1999/xlink" width="px" height="px" viewBox="0 0 144 128" version="1.1">
<g id="surface1">
<path style=" stroke:none;fill-rule:nonzero;fill:rgb(0%,0%,0%);fill-opacity:1;" d="M 96 40 C 91.574219 40 88 36.425781 88 32 C 88 27.574219 91.574219 24 96 24 L 136 24 C 140.425781 24 144 27.574219 144 32 L 144 72 C 144 76.425781 140.425781 80 136 80 C 131.574219 80 128 76.425781 128 72 L 128 51.324219 L 85.648438 93.648438 C 82.523438 96.773438 77.449219 96.773438 74.324219 93.648438 L 48 67.324219 L 13.648438 101.648438 C 10.523438 104.773438 5.449219 104.773438 2.324219 101.648438 C -0.800781 98.523438 -0.800781 93.449219 2.324219 90.324219 L 42.324219 50.324219 C 45.449219 47.199219 50.523438 47.199219 53.648438 50.324219 L 80 76.675781 L 116.675781 40 Z M 96 40 "/>
</g>
</svg>
