<?xml version="1.0" encoding="UTF-8"?>
<svg xmlns="http://www.w3.org/2000/svg" xmlns:xlink="http://www.w3.org/1999/xlink" width="px" height="px" viewBox="0 0 50 50" version="1.1">
<g id="surface1">
<path style=" stroke:none;fill-rule:nonzero;fill:rgb(0%,0%,0%);fill-opacity:1;" d="M 24.703125 12.097656 C 27.464844 12.097656 29.886719 11.019531 31.96875 8.863281 C 34.054688 6.707031 35.09375 4.199219 35.09375 1.339844 C 35.09375 1.023438 35.070312 0.578125 35.019531 0 C 34.65625 0.0507812 34.382812 0.0898438 34.203125 0.125 C 31.65625 0.488281 29.414062 1.734375 27.480469 3.867188 C 25.546875 6 24.578125 8.28125 24.578125 10.710938 C 24.578125 10.988281 24.621094 11.453125 24.703125 12.097656 Z M 34.597656 50 C 36.566406 50 38.742188 48.652344 41.121094 45.960938 C 43.503906 43.265625 45.320312 40.101562 46.578125 36.464844 C 41.898438 34.050781 39.558594 30.589844 39.558594 26.078125 C 39.558594 22.308594 41.453125 19.085938 45.238281 16.410156 C 42.609375 13.121094 39.136719 11.476562 34.820312 11.476562 C 33.003906 11.476562 31.339844 11.75 29.835938 12.296875 L 28.894531 12.640625 L 27.628906 13.136719 C 26.800781 13.453125 26.050781 13.609375 25.371094 13.609375 C 24.84375 13.609375 24.148438 13.425781 23.289062 13.0625 L 22.320312 12.667969 L 21.402344 12.296875 C 20.0625 11.734375 18.625 11.453125 17.085938 11.453125 C 12.96875 11.453125 9.664062 12.839844 7.167969 15.617188 C 4.667969 18.394531 3.421875 22.054688 3.421875 26.597656 C 3.421875 32.996094 5.421875 38.902344 9.421875 44.324219 C 12.203125 48.109375 14.738281 50 17.039062 50 C 18.015625 50 18.980469 49.808594 19.941406 49.429688 L 21.15625 48.933594 L 22.121094 48.585938 C 23.480469 48.109375 24.726562 47.867188 25.867188 47.867188 C 27.074219 47.867188 28.464844 48.175781 30.035156 48.785156 L 30.804688 49.082031 C 32.40625 49.695312 33.671875 50 34.597656 50 Z M 34.597656 50 "/>
</g>
</svg>
