<?xml version="1.0" encoding="UTF-8"?>
<svg xmlns="http://www.w3.org/2000/svg" xmlns:xlink="http://www.w3.org/1999/xlink" width="px" height="px" viewBox="0 0 17 17" version="1.1">
<defs>
<clipPath id="clip1">
  <path d="M 2 5 L 7 5 L 7 12 L 2 12 Z M 2 5 "/>
</clipPath>
<clipPath id="clip2">
  <path d="M 13.9375 7.390625 L 8.640625 7.390625 L 8.640625 9.585938 L 11.691406 9.585938 C 11.40625 10.980469 10.21875 11.78125 8.640625 11.78125 C 6.78125 11.78125 5.285156 10.28125 5.285156 8.421875 C 5.285156 6.5625 6.78125 5.0625 8.640625 5.0625 C 9.441406 5.0625 10.167969 5.347656 10.734375 5.8125 L 12.386719 4.160156 C 11.378906 3.28125 10.089844 2.738281 8.640625 2.738281 C 5.488281 2.738281 2.957031 5.269531 2.957031 8.421875 C 2.957031 11.574219 5.488281 14.105469 8.640625 14.105469 C 11.484375 14.105469 14.066406 12.039062 14.066406 8.421875 C 14.066406 8.085938 14.015625 7.726562 13.9375 7.390625 Z M 13.9375 7.390625 "/>
</clipPath>
<clipPath id="clip3">
  <path d="M 2 2 L 15 2 L 15 9 L 2 9 Z M 2 2 "/>
</clipPath>
<clipPath id="clip4">
  <path d="M 13.9375 7.390625 L 8.640625 7.390625 L 8.640625 9.585938 L 11.691406 9.585938 C 11.40625 10.980469 10.21875 11.78125 8.640625 11.78125 C 6.78125 11.78125 5.285156 10.28125 5.285156 8.421875 C 5.285156 6.5625 6.78125 5.0625 8.640625 5.0625 C 9.441406 5.0625 10.167969 5.347656 10.734375 5.8125 L 12.386719 4.160156 C 11.378906 3.28125 10.089844 2.738281 8.640625 2.738281 C 5.488281 2.738281 2.957031 5.269531 2.957031 8.421875 C 2.957031 11.574219 5.488281 14.105469 8.640625 14.105469 C 11.484375 14.105469 14.066406 12.039062 14.066406 8.421875 C 14.066406 8.085938 14.015625 7.726562 13.9375 7.390625 Z M 13.9375 7.390625 "/>
</clipPath>
<clipPath id="clip5">
  <path d="M 2 2 L 15 2 L 15 15 L 2 15 Z M 2 2 "/>
</clipPath>
<clipPath id="clip6">
  <path d="M 13.9375 7.390625 L 8.640625 7.390625 L 8.640625 9.585938 L 11.691406 9.585938 C 11.40625 10.980469 10.21875 11.78125 8.640625 11.78125 C 6.78125 11.78125 5.285156 10.28125 5.285156 8.421875 C 5.285156 6.5625 6.78125 5.0625 8.640625 5.0625 C 9.441406 5.0625 10.167969 5.347656 10.734375 5.8125 L 12.386719 4.160156 C 11.378906 3.28125 10.089844 2.738281 8.640625 2.738281 C 5.488281 2.738281 2.957031 5.269531 2.957031 8.421875 C 2.957031 11.574219 5.488281 14.105469 8.640625 14.105469 C 11.484375 14.105469 14.066406 12.039062 14.066406 8.421875 C 14.066406 8.085938 14.015625 7.726562 13.9375 7.390625 Z M 13.9375 7.390625 "/>
</clipPath>
<clipPath id="clip7">
  <path d="M 5 5 L 15 5 L 15 15 L 5 15 Z M 5 5 "/>
</clipPath>
<clipPath id="clip8">
  <path d="M 13.9375 7.390625 L 8.640625 7.390625 L 8.640625 9.585938 L 11.691406 9.585938 C 11.40625 10.980469 10.21875 11.78125 8.640625 11.78125 C 6.78125 11.78125 5.285156 10.28125 5.285156 8.421875 C 5.285156 6.5625 6.78125 5.0625 8.640625 5.0625 C 9.441406 5.0625 10.167969 5.347656 10.734375 5.8125 L 12.386719 4.160156 C 11.378906 3.28125 10.089844 2.738281 8.640625 2.738281 C 5.488281 2.738281 2.957031 5.269531 2.957031 8.421875 C 2.957031 11.574219 5.488281 14.105469 8.640625 14.105469 C 11.484375 14.105469 14.066406 12.039062 14.066406 8.421875 C 14.066406 8.085938 14.015625 7.726562 13.9375 7.390625 Z M 13.9375 7.390625 "/>
</clipPath>
</defs>
<g id="surface1">
<path style=" stroke:none;fill-rule:nonzero;fill:rgb(87.843138%,87.843138%,87.843138%);fill-opacity:1;" d="M 17.011719 8.5 C 17.011719 3.804688 13.207031 0 8.511719 0 C 3.820312 0 0.0117188 3.804688 0.0117188 8.5 C 0.0117188 13.195312 3.820312 17 8.511719 17 C 13.207031 17 17.011719 13.195312 17.011719 8.5 Z M 17.011719 8.5 "/>
<path style=" stroke:none;fill-rule:nonzero;fill:rgb(100%,100%,100%);fill-opacity:1;" d="M 16.882812 8.371094 C 16.882812 3.746094 13.136719 0 8.511719 0 C 3.890625 0 0.140625 3.746094 0.140625 8.371094 C 0.140625 12.992188 3.890625 16.742188 8.511719 16.742188 C 13.136719 16.742188 16.882812 12.992188 16.882812 8.371094 Z M 16.882812 8.371094 "/>
<g clip-path="url(#clip1)" clip-rule="nonzero">
<g clip-path="url(#clip2)" clip-rule="nonzero">
<path style=" stroke:none;fill-rule:nonzero;fill:rgb(98.431373%,73.725492%,1.960784%);fill-opacity:1;" d="M 2.441406 11.78125 L 2.441406 5.0625 L 6.832031 8.421875 Z M 2.441406 11.78125 "/>
</g>
</g>
<g clip-path="url(#clip3)" clip-rule="nonzero">
<g clip-path="url(#clip4)" clip-rule="nonzero">
<path style=" stroke:none;fill-rule:nonzero;fill:rgb(91.764706%,26.274511%,20.784314%);fill-opacity:1;" d="M 2.441406 5.0625 L 6.832031 8.421875 L 8.640625 6.847656 L 14.84375 5.839844 L 14.84375 2.222656 L 2.441406 2.222656 Z M 2.441406 5.0625 "/>
</g>
</g>
<g clip-path="url(#clip5)" clip-rule="nonzero">
<g clip-path="url(#clip6)" clip-rule="nonzero">
<path style=" stroke:none;fill-rule:nonzero;fill:rgb(20.392157%,65.882355%,32.549021%);fill-opacity:1;" d="M 2.441406 11.78125 L 10.191406 5.839844 L 12.234375 6.097656 L 14.84375 2.222656 L 14.84375 14.625 L 2.441406 14.625 Z M 2.441406 11.78125 "/>
</g>
</g>
<g clip-path="url(#clip7)" clip-rule="nonzero">
<g clip-path="url(#clip8)" clip-rule="nonzero">
<path style=" stroke:none;fill-rule:nonzero;fill:rgb(25.882354%,52.156866%,95.686275%);fill-opacity:1;" d="M 14.84375 14.625 L 6.832031 8.421875 L 5.800781 7.648438 L 14.84375 5.0625 Z M 14.84375 14.625 "/>
</g>
</g>
</g>
</svg>
