<?xml version="1.0" encoding="UTF-8"?>
<svg xmlns="http://www.w3.org/2000/svg" xmlns:xlink="http://www.w3.org/1999/xlink" width="px" height="px" viewBox="0 0 625 415" version="1.1">
<defs>
<linearGradient id="linear0" gradientUnits="userSpaceOnUse" x1="62.34" y1="101.449997" x2="260.339996" y2="91.449997" gradientTransform="matrix(2.172775,0,0,-2.172775,0.0658417,417.172775)">
<stop offset="0" style="stop-color:rgb(0%,39.215686%,88.235294%);stop-opacity:1;"/>
<stop offset="0.4" style="stop-color:rgb(0%,39.215686%,88.235294%);stop-opacity:1;"/>
<stop offset="0.83" style="stop-color:rgb(0%,45.098039%,93.333333%);stop-opacity:1;"/>
<stop offset="1" style="stop-color:rgb(0%,50.980392%,98.431373%);stop-opacity:1;"/>
</linearGradient>
<linearGradient id="linear1" gradientUnits="userSpaceOnUse" x1="41.419998" y1="53" x2="41.419998" y2="126" gradientTransform="matrix(2.172775,0,0,-2.172775,0.0658417,417.172775)">
<stop offset="0" style="stop-color:rgb(0%,50.980392%,98.431373%);stop-opacity:1;"/>
<stop offset="1" style="stop-color:rgb(0%,39.215686%,87.843137%);stop-opacity:1;"/>
</linearGradient>
</defs>
<g id="surface1">
<path style=" stroke:none;fill-rule:nonzero;fill:rgb(0%,50.588238%,98.431373%);fill-opacity:1;" d="M 67.550781 273.769531 C 67.550781 297.671875 72.789062 315.941406 79.632812 327.023438 C 87.058594 339.867188 100.800781 347.738281 115.636719 347.644531 C 133.234375 347.644531 149.335938 343.296875 180.363281 300.363281 C 205.21875 265.96875 234.507812 217.800781 254.238281 187.378906 L 287.609375 136.101562 C 310.792969 100.492188 337.585938 60.902344 368.394531 33.980469 C 393.488281 12.167969 420.585938 0 447.851562 0 C 493.632812 0 537.242188 26.53125 570.613281 76.285156 C 607.140625 130.78125 624.933594 199.417969 624.933594 270.25 C 624.933594 312.359375 616.632812 343.296875 602.511719 367.742188 C 588.886719 391.382812 562.207031 415 517.46875 415 L 517.46875 347.644531 C 555.773438 347.644531 565.269531 312.445312 565.269531 272.160156 C 565.269531 214.757812 551.886719 151.050781 522.402344 105.53125 C 501.476562 73.246094 474.359375 53.515625 444.527344 53.515625 C 412.261719 53.515625 386.296875 77.851562 357.117188 121.242188 C 341.605469 144.292969 325.679688 172.386719 307.796875 204.089844 L 288.109375 238.851562 C 248.566406 308.96875 238.550781 324.9375 218.777344 351.292969 C 184.1875 397.617188 154.59375 415 115.636719 415 C 69.421875 415 40.195312 394.988281 22.207031 364.832031 C 7.324219 340.257812 0.0664062 308.011719 0.0664062 271.269531 Z M 67.550781 273.769531 "/>
<path style=" stroke:none;fill-rule:nonzero;fill:url(#linear0);" d="M 53.277344 81.042969 C 84.21875 33.351562 128.867188 0 180.082031 0 C 209.738281 0 239.222656 8.691406 270.011719 33.917969 C 303.6875 61.402344 339.539062 106.660156 384.363281 181.253906 L 400.421875 208.019531 C 439.183594 272.597656 461.257812 305.796875 474.144531 321.484375 C 490.742188 341.605469 502.390625 347.558594 517.46875 347.558594 C 555.773438 347.558594 565.269531 312.359375 565.269531 272.074219 L 624.804688 270.207031 C 624.804688 312.316406 616.503906 343.253906 602.378906 367.699219 C 588.886719 391.382812 562.207031 415 517.46875 415 C 489.65625 415 465.019531 408.960938 437.769531 383.253906 C 416.824219 363.527344 392.339844 328.480469 373.5 296.976562 L 317.464844 203.371094 C 289.347656 156.394531 263.558594 121.371094 248.632812 105.597656 C 232.554688 88.453125 211.933594 67.855469 178.992188 67.855469 C 152.332031 67.855469 129.695312 86.5625 110.746094 115.179688 Z M 53.277344 81.042969 "/>
<path style=" stroke:none;fill-rule:nonzero;fill:url(#linear1);" d="M 178.992188 67.855469 C 152.332031 67.855469 129.695312 86.5625 110.746094 115.179688 C 83.957031 155.613281 67.550781 215.84375 67.550781 273.769531 C 67.550781 297.671875 72.789062 315.941406 79.632812 327.023438 L 22.097656 364.832031 C 7.324219 340.257812 0.0664062 308.011719 0.0664062 271.269531 C 0.0664062 204.457031 18.402344 134.820312 53.277344 81.042969 C 84.21875 33.351562 128.867188 0 180.082031 0 Z M 178.992188 67.855469 "/>
</g>
</svg>
